<svg xmlns="http://www.w3.org/2000/svg" xmlns:xlink="http://www.w3.org/1999/xlink" width="2000" zoomAndPan="magnify" viewBox="0 0 1500 1499.999933" height="2000" preserveAspectRatio="xMidYMid meet" version="1.0"><defs><g/><clipPath id="ff51fb65eb"><rect x="0" width="840" y="0" height="728"/></clipPath><clipPath id="1bf6f1e18a"><path d="M 622 585.105469 L 822 585.105469 L 822 785 L 622 785 Z M 622 585.105469 " clip-rule="nonzero"/></clipPath><clipPath id="cc52755904"><rect x="0" width="32" y="0" height="152"/></clipPath><clipPath id="0008b68c30"><rect x="0" width="340" y="0" height="218"/></clipPath><clipPath id="dbfda89b38"><rect x="0" width="328" y="0" height="218"/></clipPath></defs><g transform="matrix(1, 0, 0, 1, 330, 386)"><g clip-path="url(#ff51fb65eb)"><g fill="#ffffff" fill-opacity="1"><g transform="translate(2.415689, 512.964603)"><g><path d="M 79.703125 -63.03125 L 79.703125 -222.03125 L 68.59375 -222.03125 L 68.59375 -105.78125 C 68.59375 -96.226562 65.707031 -88.566406 59.9375 -82.796875 C 54.164062 -77.035156 46.582031 -74.15625 37.1875 -74.15625 C 27.632812 -74.15625 19.972656 -77.035156 14.203125 -82.796875 C 8.441406 -88.566406 5.5625 -96.226562 5.5625 -105.78125 L 5.5625 -250.015625 C 5.5625 -260.554688 8.765625 -269.03125 15.171875 -275.4375 C 21.578125 -281.851562 30.050781 -285.0625 40.59375 -285.0625 L 107.703125 -285.0625 C 118.242188 -285.0625 126.71875 -281.851562 133.125 -275.4375 C 139.539062 -269.03125 142.75 -260.554688 142.75 -250.015625 L 142.75 -63.03125 L 162.828125 -63.03125 L 162.828125 0 L 37.1875 0 C 27.632812 0 19.972656 -2.882812 14.203125 -8.65625 C 8.441406 -14.425781 5.5625 -22.082031 5.5625 -31.625 C 5.5625 -41.03125 8.441406 -48.613281 14.203125 -54.375 C 19.972656 -60.144531 27.632812 -63.03125 37.1875 -63.03125 Z M 79.703125 -63.03125 "/></g></g></g><g fill="#ffffff" fill-opacity="1"><g transform="translate(150.503134, 512.964603)"><g><path d="M 16.875 0 C 7.332031 0 -0.320312 -2.882812 -6.09375 -8.65625 C -11.863281 -14.425781 -14.75 -22.082031 -14.75 -31.625 C -14.75 -41.03125 -11.863281 -48.613281 -6.09375 -54.375 C -0.320312 -60.144531 7.332031 -63.03125 16.875 -63.03125 L 22.4375 -63.03125 C 31.84375 -63.03125 39.425781 -60.144531 45.1875 -54.375 C 50.957031 -48.613281 53.84375 -41.03125 53.84375 -31.625 C 53.84375 -22.082031 50.957031 -14.425781 45.1875 -8.65625 C 39.425781 -2.882812 31.84375 0 22.4375 0 Z M 16.875 0 "/></g></g></g><g fill="#ffffff" fill-opacity="1"><g transform="translate(189.608497, 512.964603)"><g><path d="M 16.875 0 C 7.332031 0 -0.320312 -2.882812 -6.09375 -8.65625 C -11.863281 -14.425781 -14.75 -22.082031 -14.75 -31.625 C -14.75 -41.03125 -11.863281 -48.613281 -6.09375 -54.375 C -0.320312 -60.144531 7.332031 -63.03125 16.875 -63.03125 L 22.4375 -63.03125 C 31.84375 -63.03125 39.425781 -60.144531 45.1875 -54.375 C 50.957031 -48.613281 53.84375 -41.03125 53.84375 -31.625 C 53.84375 -22.082031 50.957031 -14.425781 45.1875 -8.65625 C 39.425781 -2.882812 31.84375 0 22.4375 0 Z M 16.875 0 "/></g></g></g><g fill="#ffffff" fill-opacity="1"><g transform="translate(228.71386, 512.964603)"><g><path d="M 16.875 0 C 7.332031 0 -0.320312 -2.882812 -6.09375 -8.65625 C -11.863281 -14.425781 -14.75 -22.082031 -14.75 -31.625 C -14.75 -41.03125 -11.863281 -48.613281 -6.09375 -54.375 C -0.320312 -60.144531 7.332031 -63.03125 16.875 -63.03125 L 22.4375 -63.03125 C 31.84375 -63.03125 39.425781 -60.144531 45.1875 -54.375 C 50.957031 -48.613281 53.84375 -41.03125 53.84375 -31.625 C 53.84375 -22.082031 50.957031 -14.425781 45.1875 -8.65625 C 39.425781 -2.882812 31.84375 0 22.4375 0 Z M 16.875 0 "/></g></g></g><g fill="#ffffff" fill-opacity="1"><g transform="translate(267.819223, 512.964603)"><g><path d="M 16.875 0 C 7.332031 0 -0.320312 -2.882812 -6.09375 -8.65625 C -11.863281 -14.425781 -14.75 -22.082031 -14.75 -31.625 C -14.75 -41.03125 -11.863281 -48.613281 -6.09375 -54.375 C -0.320312 -60.144531 7.332031 -63.03125 16.875 -63.03125 L 22.4375 -63.03125 C 31.84375 -63.03125 39.425781 -60.144531 45.1875 -54.375 C 50.957031 -48.613281 53.84375 -41.03125 53.84375 -31.625 C 53.84375 -22.082031 50.957031 -14.425781 45.1875 -8.65625 C 39.425781 -2.882812 31.84375 0 22.4375 0 Z M 16.875 0 "/></g></g></g><g fill="#ffffff" fill-opacity="1"><g transform="translate(306.924585, 512.964603)"><g><path d="M 16.875 0 C 7.332031 0 -0.320312 -2.882812 -6.09375 -8.65625 C -11.863281 -14.425781 -14.75 -22.082031 -14.75 -31.625 C -14.75 -41.03125 -11.863281 -48.613281 -6.09375 -54.375 C -0.320312 -60.144531 7.332031 -63.03125 16.875 -63.03125 L 22.4375 -63.03125 C 31.84375 -63.03125 39.425781 -60.144531 45.1875 -54.375 C 50.957031 -48.613281 53.84375 -41.03125 53.84375 -31.625 C 53.84375 -22.082031 50.957031 -14.425781 45.1875 -8.65625 C 39.425781 -2.882812 31.84375 0 22.4375 0 Z M 16.875 0 "/></g></g></g><g fill="#ffffff" fill-opacity="1"><g transform="translate(346.029948, 512.964603)"><g><path d="M 16.875 0 C 7.332031 0 -0.320312 -2.882812 -6.09375 -8.65625 C -11.863281 -14.425781 -14.75 -22.082031 -14.75 -31.625 C -14.75 -41.03125 -11.863281 -48.613281 -6.09375 -54.375 C -0.320312 -60.144531 7.332031 -63.03125 16.875 -63.03125 L 22.4375 -63.03125 C 31.84375 -63.03125 39.425781 -60.144531 45.1875 -54.375 C 50.957031 -48.613281 53.84375 -41.03125 53.84375 -31.625 C 53.84375 -22.082031 50.957031 -14.425781 45.1875 -8.65625 C 39.425781 -2.882812 31.84375 0 22.4375 0 Z M 16.875 0 "/></g></g></g><g fill="#ffffff" fill-opacity="1"><g transform="translate(385.135311, 512.964603)"><g><path d="M 16.875 0 C 7.332031 0 -0.320312 -2.882812 -6.09375 -8.65625 C -11.863281 -14.425781 -14.75 -22.082031 -14.75 -31.625 C -14.75 -41.03125 -11.863281 -48.613281 -6.09375 -54.375 C -0.320312 -60.144531 7.332031 -63.03125 16.875 -63.03125 L 22.4375 -63.03125 C 31.84375 -63.03125 39.425781 -60.144531 45.1875 -54.375 C 50.957031 -48.613281 53.84375 -41.03125 53.84375 -31.625 C 53.84375 -22.082031 50.957031 -14.425781 45.1875 -8.65625 C 39.425781 -2.882812 31.84375 0 22.4375 0 Z M 16.875 0 "/></g></g></g><g fill="#ffffff" fill-opacity="1"><g transform="translate(424.240673, 512.964603)"><g><path d="M 16.875 0 C 7.332031 0 -0.320312 -2.882812 -6.09375 -8.65625 C -11.863281 -14.425781 -14.75 -22.082031 -14.75 -31.625 C -14.75 -41.03125 -11.863281 -48.613281 -6.09375 -54.375 C -0.320312 -60.144531 7.332031 -63.03125 16.875 -63.03125 L 22.4375 -63.03125 C 31.84375 -63.03125 39.425781 -60.144531 45.1875 -54.375 C 50.957031 -48.613281 53.84375 -41.03125 53.84375 -31.625 C 53.84375 -22.082031 50.957031 -14.425781 45.1875 -8.65625 C 39.425781 -2.882812 31.84375 0 22.4375 0 Z M 16.875 0 "/></g></g></g><g fill="#ffffff" fill-opacity="1"><g transform="translate(463.346036, 512.964603)"><g><path d="M 16.875 0 C 7.332031 0 -0.320312 -2.882812 -6.09375 -8.65625 C -11.863281 -14.425781 -14.75 -22.082031 -14.75 -31.625 C -14.75 -41.03125 -11.863281 -48.613281 -6.09375 -54.375 C -0.320312 -60.144531 7.332031 -63.03125 16.875 -63.03125 L 22.4375 -63.03125 C 31.84375 -63.03125 39.425781 -60.144531 45.1875 -54.375 C 50.957031 -48.613281 53.84375 -41.03125 53.84375 -31.625 C 53.84375 -22.082031 50.957031 -14.425781 45.1875 -8.65625 C 39.425781 -2.882812 31.84375 0 22.4375 0 Z M 16.875 0 "/></g></g></g><g fill="#ffffff" fill-opacity="1"><g transform="translate(502.451399, 512.964603)"><g><path d="M 16.875 0 C 7.332031 0 -0.320312 -2.882812 -6.09375 -8.65625 C -11.863281 -14.425781 -14.75 -22.082031 -14.75 -31.625 C -14.75 -41.03125 -11.863281 -48.613281 -6.09375 -54.375 C -0.320312 -60.144531 7.332031 -63.03125 16.875 -63.03125 L 22.4375 -63.03125 C 31.84375 -63.03125 39.425781 -60.144531 45.1875 -54.375 C 50.957031 -48.613281 53.84375 -41.03125 53.84375 -31.625 C 53.84375 -22.082031 50.957031 -14.425781 45.1875 -8.65625 C 39.425781 -2.882812 31.84375 0 22.4375 0 Z M 16.875 0 "/></g></g></g><g fill="#ffffff" fill-opacity="1"><g transform="translate(541.556762, 512.964603)"><g><path d="M 142.3125 -35.046875 C 142.3125 -24.503906 139.109375 -16.023438 132.703125 -9.609375 C 126.296875 -3.203125 117.816406 0 107.265625 0 L -0.421875 -0.21875 C -9.828125 -0.21875 -17.414062 -3.097656 -23.1875 -8.859375 C -28.957031 -14.628906 -31.84375 -22.21875 -31.84375 -31.625 L -31.84375 -53.203125 C -31.84375 -56.203125 -30.914062 -58.625 -29.0625 -60.46875 C -27.207031 -62.320312 -24.785156 -63.25 -21.796875 -63.25 L 5.34375 -63.03125 L 5.34375 -264.765625 C 5.34375 -274.171875 8.226562 -281.753906 14 -287.515625 C 19.769531 -293.285156 27.425781 -296.171875 36.96875 -296.171875 L 62.828125 -296.171875 C 66.523438 -296.171875 68.375 -294.320312 68.375 -290.625 L 68.375 -285.0625 L 107.265625 -285.0625 C 117.816406 -285.0625 126.296875 -281.851562 132.703125 -275.4375 C 139.109375 -269.03125 142.3125 -260.554688 142.3125 -250.015625 Z M 79.28125 -222.234375 L 68.375 -222.234375 L 68.375 -63.03125 L 79.28125 -63.03125 Z M 79.28125 -222.234375 "/></g></g></g><g fill="#ffffff" fill-opacity="1"><g transform="translate(689.430491, 512.964603)"><g><path d="M 68.375 -31.40625 C 68.375 -21.863281 65.523438 -14.242188 59.828125 -8.546875 C 54.128906 -2.847656 46.507812 0 36.96875 0 C 27.425781 0 19.804688 -2.847656 14.109375 -8.546875 C 8.410156 -14.242188 5.5625 -21.863281 5.5625 -31.40625 L 5.5625 -401.53125 C 5.5625 -411.070312 8.410156 -418.691406 14.109375 -424.390625 C 19.804688 -430.085938 27.425781 -432.9375 36.96875 -432.9375 C 46.507812 -432.9375 54.128906 -430.085938 59.828125 -424.390625 C 65.523438 -418.691406 68.375 -411.070312 68.375 -401.53125 Z M 68.375 -31.40625 "/></g></g></g><g fill="#ffffff" fill-opacity="1"><g transform="translate(763.367358, 512.964603)"><g><path d="M 68.59375 116.671875 C 68.59375 126.078125 65.707031 133.664062 59.9375 139.4375 C 54.164062 145.207031 46.582031 148.09375 37.1875 148.09375 C 27.632812 148.09375 19.972656 145.207031 14.203125 139.4375 C 8.441406 133.664062 5.5625 126.078125 5.5625 116.671875 L 5.5625 -253.65625 C 5.5625 -263.050781 8.441406 -270.632812 14.203125 -276.40625 C 19.972656 -282.175781 27.632812 -285.0625 37.1875 -285.0625 C 46.582031 -285.0625 54.164062 -282.175781 59.9375 -276.40625 C 65.707031 -270.632812 68.59375 -263.050781 68.59375 -253.65625 Z M 68.59375 116.671875 "/></g></g></g></g></g><g clip-path="url(#1bf6f1e18a)"><path fill="#ffffff" d="M 816.40625 757.671875 L 778.449219 722.46875 C 788.878906 708.1875 795.078125 690.617188 795.078125 671.636719 C 795.078125 623.941406 756.242188 585.105469 708.542969 585.105469 C 661.097656 585.105469 622.355469 623.59375 622.011719 670.980469 C 630.71875 671.542969 639.109375 673.265625 646.941406 675.742188 C 646.785156 674.332031 646.691406 673.015625 646.691406 671.636719 C 646.691406 637.5 674.5 609.785156 708.542969 609.785156 C 742.683594 609.785156 770.398438 637.5 770.398438 671.636719 C 770.398438 700.421875 750.574219 724.785156 723.765625 731.519531 C 727.554688 739.414062 727.960938 748.371094 725.175781 756.605469 C 737.796875 754.132812 749.449219 748.871094 759.46875 741.542969 L 794.609375 779.46875 C 794.859375 779.75 795.171875 780.035156 795.453125 780.316406 C 801.71875 786.109375 811.488281 785.734375 817.285156 779.46875 C 823.046875 773.238281 822.671875 763.464844 816.40625 757.671875 Z M 816.40625 757.671875 " fill-opacity="1" fill-rule="nonzero"/></g><path fill="#ffffff" d="M 708.542969 629.890625 C 685.523438 629.890625 666.828125 648.617188 666.828125 671.605469 C 666.828125 678.402344 672.339844 683.945312 679.167969 683.945312 C 685.996094 683.945312 691.507812 678.433594 691.507812 671.605469 C 691.507812 662.210938 699.148438 654.570312 708.542969 654.570312 C 715.371094 654.570312 720.882812 649.058594 720.882812 642.230469 C 720.882812 635.402344 715.339844 629.890625 708.542969 629.890625 Z M 708.542969 629.890625 " fill-opacity="1" fill-rule="nonzero"/><path fill="#ffffff" d="M 613.867188 693.625 C 565.667969 693.625 527.929688 737.09375 526.363281 738.941406 C 522.980469 742.890625 522.980469 748.683594 526.363281 752.628906 C 527.929688 754.476562 565.667969 797.917969 613.867188 797.917969 C 662.066406 797.917969 699.773438 754.476562 701.371094 752.628906 C 704.753906 748.683594 704.753906 742.859375 701.371094 738.941406 C 699.773438 737.09375 662.066406 693.625 613.867188 693.625 Z M 613.867188 782.257812 C 593.730469 782.257812 577.414062 765.941406 577.414062 745.800781 C 577.414062 725.664062 593.730469 709.347656 613.867188 709.347656 C 634.003906 709.347656 650.324219 725.664062 650.324219 745.800781 C 650.324219 765.910156 634.003906 782.257812 613.867188 782.257812 Z M 613.867188 782.257812 " fill-opacity="1" fill-rule="nonzero"/><path fill="#ffffff" d="M 613.867188 723.941406 C 611.800781 723.941406 609.859375 724.316406 607.949219 724.847656 C 609.261719 726.632812 610.078125 728.828125 610.078125 731.207031 C 610.078125 737.15625 605.253906 741.980469 599.304688 741.980469 C 596.925781 741.980469 594.730469 741.167969 592.945312 739.851562 C 592.414062 741.730469 592.039062 743.703125 592.039062 745.769531 C 592.039062 757.828125 601.808594 767.601562 613.867188 767.601562 C 625.925781 767.601562 635.695312 757.828125 635.695312 745.769531 C 635.695312 733.742188 625.925781 723.941406 613.867188 723.941406 Z M 613.867188 723.941406 " fill-opacity="1" fill-rule="nonzero"/><g transform="matrix(1, 0, 0, 1, 1114, 923)"><g clip-path="url(#cc52755904)"><g fill="#0e5d5a" fill-opacity="1"><g transform="translate(0.866967, 106.791059)"><g><path d="M 29.703125 -6.578125 C 29.703125 -4.585938 29.097656 -2.992188 27.890625 -1.796875 C 26.691406 -0.597656 25.113281 0 23.15625 0 L 8.453125 0 C 6.253906 0 4.488281 -0.664062 3.15625 -2 C 1.820312 -3.332031 1.15625 -5.097656 1.15625 -7.296875 L 1.15625 -52.015625 C 1.15625 -54.203125 1.820312 -55.960938 3.15625 -57.296875 C 4.488281 -58.640625 6.253906 -59.3125 8.453125 -59.3125 L 22.40625 -59.3125 C 24.601562 -59.3125 26.367188 -58.640625 27.703125 -57.296875 C 29.035156 -55.960938 29.703125 -54.203125 29.703125 -52.015625 L 29.703125 -21.96875 C 29.703125 -19.976562 29.097656 -18.378906 27.890625 -17.171875 C 26.691406 -15.972656 25.113281 -15.375 23.15625 -15.375 C 21.175781 -15.375 19.582031 -15.972656 18.375 -17.171875 C 17.175781 -18.378906 16.578125 -19.976562 16.578125 -21.96875 L 16.578125 -46.1875 L 14.265625 -46.1875 L 14.265625 -13.109375 L 23.15625 -13.109375 C 25.113281 -13.109375 26.691406 -12.507812 27.890625 -11.3125 C 29.097656 -10.113281 29.703125 -8.535156 29.703125 -6.578125 Z M 29.703125 -6.578125 "/></g></g></g></g></g><g transform="matrix(1, 0, 0, 1, 353, 866)"><g clip-path="url(#0008b68c30)"><g fill="#ffffff" fill-opacity="1"><g transform="translate(7.086221, 153.596451)"><g><path d="M 38.46875 -93.40625 C 50.0625 -93.40625 58.628906 -91.203125 64.171875 -86.796875 C 69.710938 -82.398438 72.484375 -75.753906 72.484375 -66.859375 C 72.484375 -61.878906 71.566406 -57.734375 69.734375 -54.421875 C 67.898438 -51.109375 65.566406 -48.445312 62.734375 -46.4375 C 59.898438 -44.4375 56.910156 -42.910156 53.765625 -41.859375 L 79.40625 0 L 65.671875 0 L 43.046875 -38.59375 L 24.46875 -38.59375 L 24.46875 0 L 12.6875 0 L 12.6875 -93.40625 Z M 37.8125 -83.203125 L 24.46875 -83.203125 L 24.46875 -48.53125 L 38.46875 -48.53125 C 46.050781 -48.53125 51.585938 -50.035156 55.078125 -53.046875 C 58.566406 -56.054688 60.3125 -60.484375 60.3125 -66.328125 C 60.3125 -72.429688 58.476562 -76.769531 54.8125 -79.34375 C 51.15625 -81.914062 45.488281 -83.203125 37.8125 -83.203125 Z M 37.8125 -83.203125 "/></g></g></g><g fill="#ffffff" fill-opacity="1"><g transform="translate(88.462219, 153.596451)"><g><path d="M 37.671875 -71.296875 C 46.222656 -71.296875 52.546875 -69.421875 56.640625 -65.671875 C 60.742188 -61.921875 62.796875 -55.945312 62.796875 -47.75 L 62.796875 0 L 54.421875 0 L 52.203125 -9.9375 L 51.671875 -9.9375 C 48.617188 -6.101562 45.390625 -3.269531 41.984375 -1.4375 C 38.585938 0.394531 33.96875 1.3125 28.125 1.3125 C 21.757812 1.3125 16.484375 -0.363281 12.296875 -3.71875 C 8.109375 -7.082031 6.015625 -12.34375 6.015625 -19.5 C 6.015625 -26.46875 8.757812 -31.847656 14.25 -35.640625 C 19.75 -39.441406 28.210938 -41.515625 39.640625 -41.859375 L 51.546875 -42.25 L 51.546875 -46.4375 C 51.546875 -52.28125 50.28125 -56.335938 47.75 -58.609375 C 45.21875 -60.878906 41.644531 -62.015625 37.03125 -62.015625 C 33.363281 -62.015625 29.875 -61.46875 26.5625 -60.375 C 23.25 -59.28125 20.148438 -58.039062 17.265625 -56.65625 L 13.734375 -65.28125 C 16.785156 -66.9375 20.40625 -68.351562 24.59375 -69.53125 C 28.78125 -70.707031 33.140625 -71.296875 37.671875 -71.296875 Z M 51.421875 -34.28125 L 41.078125 -33.890625 C 32.359375 -33.535156 26.316406 -32.132812 22.953125 -29.6875 C 19.597656 -27.25 17.921875 -23.804688 17.921875 -19.359375 C 17.921875 -15.429688 19.117188 -12.550781 21.515625 -10.71875 C 23.921875 -8.894531 27 -7.984375 30.75 -7.984375 C 36.59375 -7.984375 41.5 -9.617188 45.46875 -12.890625 C 49.4375 -16.160156 51.421875 -21.195312 51.421875 -28 Z M 51.421875 -34.28125 "/></g></g></g><g fill="#ffffff" fill-opacity="1"><g transform="translate(161.857609, 153.596451)"><g><path d="M 56.78125 -19.359375 C 56.78125 -12.554688 54.25 -7.410156 49.1875 -3.921875 C 44.132812 -0.429688 37.332031 1.3125 28.78125 1.3125 C 23.894531 1.3125 19.6875 0.914062 16.15625 0.125 C 12.625 -0.65625 9.503906 -1.742188 6.796875 -3.140625 L 6.796875 -13.609375 C 9.585938 -12.210938 12.96875 -10.925781 16.9375 -9.75 C 20.90625 -8.570312 24.941406 -7.984375 29.046875 -7.984375 C 34.890625 -7.984375 39.117188 -8.921875 41.734375 -10.796875 C 44.347656 -12.671875 45.65625 -15.175781 45.65625 -18.3125 C 45.65625 -20.0625 45.175781 -21.632812 44.21875 -23.03125 C 43.257812 -24.425781 41.535156 -25.820312 39.046875 -27.21875 C 36.566406 -28.613281 33.015625 -30.179688 28.390625 -31.921875 C 23.859375 -33.660156 19.976562 -35.398438 16.75 -37.140625 C 13.519531 -38.890625 11.03125 -40.984375 9.28125 -43.421875 C 7.539062 -45.867188 6.671875 -49.015625 6.671875 -52.859375 C 6.671875 -58.785156 9.085938 -63.363281 13.921875 -66.59375 C 18.765625 -69.820312 25.113281 -71.4375 32.96875 -71.4375 C 37.238281 -71.4375 41.226562 -71 44.9375 -70.125 C 48.644531 -69.25 52.113281 -68.113281 55.34375 -66.71875 L 51.421875 -57.5625 C 48.453125 -58.78125 45.351562 -59.828125 42.125 -60.703125 C 38.894531 -61.578125 35.582031 -62.015625 32.1875 -62.015625 C 27.476562 -62.015625 23.878906 -61.25 21.390625 -59.71875 C 18.898438 -58.195312 17.65625 -56.128906 17.65625 -53.515625 C 17.65625 -51.503906 18.222656 -49.84375 19.359375 -48.53125 C 20.492188 -47.226562 22.390625 -45.921875 25.046875 -44.609375 C 27.710938 -43.304688 31.269531 -41.828125 35.71875 -40.171875 C 40.164062 -38.503906 43.957031 -36.800781 47.09375 -35.0625 C 50.238281 -33.320312 52.640625 -31.207031 54.296875 -28.71875 C 55.953125 -26.226562 56.78125 -23.109375 56.78125 -19.359375 Z M 56.78125 -19.359375 "/></g></g></g><g fill="#ffffff" fill-opacity="1"><g transform="translate(224.524971, 153.596451)"><g><path d="M 17 -96.421875 C 18.75 -96.421875 20.300781 -95.832031 21.65625 -94.65625 C 23.007812 -93.476562 23.6875 -91.625 23.6875 -89.09375 C 23.6875 -86.5625 23.007812 -84.707031 21.65625 -83.53125 C 20.300781 -82.351562 18.75 -81.765625 17 -81.765625 C 15.082031 -81.765625 13.46875 -82.351562 12.15625 -83.53125 C 10.851562 -84.707031 10.203125 -86.5625 10.203125 -89.09375 C 10.203125 -91.625 10.851562 -93.476562 12.15625 -94.65625 C 13.46875 -95.832031 15.082031 -96.421875 17 -96.421875 Z M 22.640625 -70.125 L 22.640625 0 L 11.125 0 L 11.125 -70.125 Z M 22.640625 -70.125 "/></g></g></g><g fill="#ffffff" fill-opacity="1"><g transform="translate(258.279001, 153.596451)"><g><path d="M 35.984375 1.3125 C 27.253906 1.3125 20.273438 -1.71875 15.046875 -7.78125 C 9.816406 -13.84375 7.203125 -22.894531 7.203125 -34.9375 C 7.203125 -46.96875 9.835938 -56.054688 15.109375 -62.203125 C 20.390625 -68.359375 27.390625 -71.4375 36.109375 -71.4375 C 41.515625 -71.4375 45.941406 -70.429688 49.390625 -68.421875 C 52.835938 -66.421875 55.648438 -63.976562 57.828125 -61.09375 L 58.609375 -61.09375 C 58.429688 -62.226562 58.253906 -63.90625 58.078125 -66.125 C 57.910156 -68.351562 57.828125 -70.125 57.828125 -71.4375 L 57.828125 -99.421875 L 69.34375 -99.421875 L 69.34375 0 L 60.046875 0 L 58.34375 -9.421875 L 57.828125 -9.421875 C 55.734375 -6.453125 52.941406 -3.921875 49.453125 -1.828125 C 45.960938 0.265625 41.472656 1.3125 35.984375 1.3125 Z M 37.8125 -8.234375 C 45.226562 -8.234375 50.4375 -10.257812 53.4375 -14.3125 C 56.445312 -18.375 57.953125 -24.503906 57.953125 -32.703125 L 57.953125 -34.796875 C 57.953125 -43.523438 56.515625 -50.21875 53.640625 -54.875 C 50.765625 -59.539062 45.441406 -61.875 37.671875 -61.875 C 31.484375 -61.875 26.835938 -59.410156 23.734375 -54.484375 C 20.640625 -49.554688 19.09375 -42.953125 19.09375 -34.671875 C 19.09375 -26.296875 20.640625 -19.796875 23.734375 -15.171875 C 26.835938 -10.546875 31.53125 -8.234375 37.8125 -8.234375 Z M 37.8125 -8.234375 "/></g></g></g></g></g><g transform="matrix(1, 0, 0, 1, 734, 866)"><g clip-path="url(#dbfda89b38)"><g fill="#ffffff" fill-opacity="1"><g transform="translate(6.078772, 153.596451)"><g><path d="M 5.046875 0 C 2.191406 0 -0.09375 -0.859375 -1.8125 -2.578125 C -3.539062 -4.304688 -4.40625 -6.597656 -4.40625 -9.453125 C -4.40625 -12.265625 -3.539062 -14.53125 -1.8125 -16.25 C -0.09375 -17.976562 2.191406 -18.84375 5.046875 -18.84375 L 6.703125 -18.84375 C 9.515625 -18.84375 11.78125 -17.976562 13.5 -16.25 C 15.226562 -14.53125 16.09375 -12.265625 16.09375 -9.453125 C 16.09375 -6.597656 15.226562 -4.304688 13.5 -2.578125 C 11.78125 -0.859375 9.515625 0 6.703125 0 Z M 5.046875 0 "/></g></g></g><g fill="#ffffff" fill-opacity="1"><g transform="translate(17.769109, 153.596451)"><g><path d="M 5.046875 0 C 2.191406 0 -0.09375 -0.859375 -1.8125 -2.578125 C -3.539062 -4.304688 -4.40625 -6.597656 -4.40625 -9.453125 C -4.40625 -12.265625 -3.539062 -14.53125 -1.8125 -16.25 C -0.09375 -17.976562 2.191406 -18.84375 5.046875 -18.84375 L 6.703125 -18.84375 C 9.515625 -18.84375 11.78125 -17.976562 13.5 -16.25 C 15.226562 -14.53125 16.09375 -12.265625 16.09375 -9.453125 C 16.09375 -6.597656 15.226562 -4.304688 13.5 -2.578125 C 11.78125 -0.859375 9.515625 0 6.703125 0 Z M 5.046875 0 "/></g></g></g><g fill="#ffffff" fill-opacity="1"><g transform="translate(29.459446, 153.596451)"><g><path d="M 5.046875 0 C 2.191406 0 -0.09375 -0.859375 -1.8125 -2.578125 C -3.539062 -4.304688 -4.40625 -6.597656 -4.40625 -9.453125 C -4.40625 -12.265625 -3.539062 -14.53125 -1.8125 -16.25 C -0.09375 -17.976562 2.191406 -18.84375 5.046875 -18.84375 L 6.703125 -18.84375 C 9.515625 -18.84375 11.78125 -17.976562 13.5 -16.25 C 15.226562 -14.53125 16.09375 -12.265625 16.09375 -9.453125 C 16.09375 -6.597656 15.226562 -4.304688 13.5 -2.578125 C 11.78125 -0.859375 9.515625 0 6.703125 0 Z M 5.046875 0 "/></g></g></g><g fill="#ffffff" fill-opacity="1"><g transform="translate(41.149783, 153.596451)"><g><path d="M 5.046875 0 C 2.191406 0 -0.09375 -0.859375 -1.8125 -2.578125 C -3.539062 -4.304688 -4.40625 -6.597656 -4.40625 -9.453125 C -4.40625 -12.265625 -3.539062 -14.53125 -1.8125 -16.25 C -0.09375 -17.976562 2.191406 -18.84375 5.046875 -18.84375 L 6.703125 -18.84375 C 9.515625 -18.84375 11.78125 -17.976562 13.5 -16.25 C 15.226562 -14.53125 16.09375 -12.265625 16.09375 -9.453125 C 16.09375 -6.597656 15.226562 -4.304688 13.5 -2.578125 C 11.78125 -0.859375 9.515625 0 6.703125 0 Z M 5.046875 0 "/></g></g></g><g fill="#ffffff" fill-opacity="1"><g transform="translate(52.840119, 153.596451)"><g><path d="M 5.046875 0 C 2.191406 0 -0.09375 -0.859375 -1.8125 -2.578125 C -3.539062 -4.304688 -4.40625 -6.597656 -4.40625 -9.453125 C -4.40625 -12.265625 -3.539062 -14.53125 -1.8125 -16.25 C -0.09375 -17.976562 2.191406 -18.84375 5.046875 -18.84375 L 6.703125 -18.84375 C 9.515625 -18.84375 11.78125 -17.976562 13.5 -16.25 C 15.226562 -14.53125 16.09375 -12.265625 16.09375 -9.453125 C 16.09375 -6.597656 15.226562 -4.304688 13.5 -2.578125 C 11.78125 -0.859375 9.515625 0 6.703125 0 Z M 5.046875 0 "/></g></g></g><g fill="#ffffff" fill-opacity="1"><g transform="translate(64.530456, 153.596451)"><g><path d="M 5.046875 0 C 2.191406 0 -0.09375 -0.859375 -1.8125 -2.578125 C -3.539062 -4.304688 -4.40625 -6.597656 -4.40625 -9.453125 C -4.40625 -12.265625 -3.539062 -14.53125 -1.8125 -16.25 C -0.09375 -17.976562 2.191406 -18.84375 5.046875 -18.84375 L 6.703125 -18.84375 C 9.515625 -18.84375 11.78125 -17.976562 13.5 -16.25 C 15.226562 -14.53125 16.09375 -12.265625 16.09375 -9.453125 C 16.09375 -6.597656 15.226562 -4.304688 13.5 -2.578125 C 11.78125 -0.859375 9.515625 0 6.703125 0 Z M 5.046875 0 "/></g></g></g><g fill="#ffffff" fill-opacity="1"><g transform="translate(76.220793, 153.596451)"><g><path d="M 5.046875 0 C 2.191406 0 -0.09375 -0.859375 -1.8125 -2.578125 C -3.539062 -4.304688 -4.40625 -6.597656 -4.40625 -9.453125 C -4.40625 -12.265625 -3.539062 -14.53125 -1.8125 -16.25 C -0.09375 -17.976562 2.191406 -18.84375 5.046875 -18.84375 L 6.703125 -18.84375 C 9.515625 -18.84375 11.78125 -17.976562 13.5 -16.25 C 15.226562 -14.53125 16.09375 -12.265625 16.09375 -9.453125 C 16.09375 -6.597656 15.226562 -4.304688 13.5 -2.578125 C 11.78125 -0.859375 9.515625 0 6.703125 0 Z M 5.046875 0 "/></g></g></g><g fill="#ffffff" fill-opacity="1"><g transform="translate(87.91113, 153.596451)"><g><path d="M 5.046875 0 C 2.191406 0 -0.09375 -0.859375 -1.8125 -2.578125 C -3.539062 -4.304688 -4.40625 -6.597656 -4.40625 -9.453125 C -4.40625 -12.265625 -3.539062 -14.53125 -1.8125 -16.25 C -0.09375 -17.976562 2.191406 -18.84375 5.046875 -18.84375 L 6.703125 -18.84375 C 9.515625 -18.84375 11.78125 -17.976562 13.5 -16.25 C 15.226562 -14.53125 16.09375 -12.265625 16.09375 -9.453125 C 16.09375 -6.597656 15.226562 -4.304688 13.5 -2.578125 C 11.78125 -0.859375 9.515625 0 6.703125 0 Z M 5.046875 0 "/></g></g></g><g fill="#ffffff" fill-opacity="1"><g transform="translate(99.601467, 153.596451)"><g><path d="M 5.046875 0 C 2.191406 0 -0.09375 -0.859375 -1.8125 -2.578125 C -3.539062 -4.304688 -4.40625 -6.597656 -4.40625 -9.453125 C -4.40625 -12.265625 -3.539062 -14.53125 -1.8125 -16.25 C -0.09375 -17.976562 2.191406 -18.84375 5.046875 -18.84375 L 6.703125 -18.84375 C 9.515625 -18.84375 11.78125 -17.976562 13.5 -16.25 C 15.226562 -14.53125 16.09375 -12.265625 16.09375 -9.453125 C 16.09375 -6.597656 15.226562 -4.304688 13.5 -2.578125 C 11.78125 -0.859375 9.515625 0 6.703125 0 Z M 5.046875 0 "/></g></g></g><g fill="#ffffff" fill-opacity="1"><g transform="translate(111.291803, 153.596451)"><g><path d="M 5.046875 0 C 2.191406 0 -0.09375 -0.859375 -1.8125 -2.578125 C -3.539062 -4.304688 -4.40625 -6.597656 -4.40625 -9.453125 C -4.40625 -12.265625 -3.539062 -14.53125 -1.8125 -16.25 C -0.09375 -17.976562 2.191406 -18.84375 5.046875 -18.84375 L 6.703125 -18.84375 C 9.515625 -18.84375 11.78125 -17.976562 13.5 -16.25 C 15.226562 -14.53125 16.09375 -12.265625 16.09375 -9.453125 C 16.09375 -6.597656 15.226562 -4.304688 13.5 -2.578125 C 11.78125 -0.859375 9.515625 0 6.703125 0 Z M 5.046875 0 "/></g></g></g><g fill="#ffffff" fill-opacity="1"><g transform="translate(122.98214, 153.596451)"><g><path d="M 5.046875 0 C 2.191406 0 -0.09375 -0.859375 -1.8125 -2.578125 C -3.539062 -4.304688 -4.40625 -6.597656 -4.40625 -9.453125 C -4.40625 -12.265625 -3.539062 -14.53125 -1.8125 -16.25 C -0.09375 -17.976562 2.191406 -18.84375 5.046875 -18.84375 L 6.703125 -18.84375 C 9.515625 -18.84375 11.78125 -17.976562 13.5 -16.25 C 15.226562 -14.53125 16.09375 -12.265625 16.09375 -9.453125 C 16.09375 -6.597656 15.226562 -4.304688 13.5 -2.578125 C 11.78125 -0.859375 9.515625 0 6.703125 0 Z M 5.046875 0 "/></g></g></g><g fill="#ffffff" fill-opacity="1"><g transform="translate(134.672477, 153.596451)"><g><path d="M 5.046875 0 C 2.191406 0 -0.09375 -0.859375 -1.8125 -2.578125 C -3.539062 -4.304688 -4.40625 -6.597656 -4.40625 -9.453125 C -4.40625 -12.265625 -3.539062 -14.53125 -1.8125 -16.25 C -0.09375 -17.976562 2.191406 -18.84375 5.046875 -18.84375 L 6.703125 -18.84375 C 9.515625 -18.84375 11.78125 -17.976562 13.5 -16.25 C 15.226562 -14.53125 16.09375 -12.265625 16.09375 -9.453125 C 16.09375 -6.597656 15.226562 -4.304688 13.5 -2.578125 C 11.78125 -0.859375 9.515625 0 6.703125 0 Z M 5.046875 0 "/></g></g></g><g fill="#ffffff" fill-opacity="1"><g transform="translate(146.362814, 153.596451)"><g><path d="M 5.046875 0 C 2.191406 0 -0.09375 -0.859375 -1.8125 -2.578125 C -3.539062 -4.304688 -4.40625 -6.597656 -4.40625 -9.453125 C -4.40625 -12.265625 -3.539062 -14.53125 -1.8125 -16.25 C -0.09375 -17.976562 2.191406 -18.84375 5.046875 -18.84375 L 6.703125 -18.84375 C 9.515625 -18.84375 11.78125 -17.976562 13.5 -16.25 C 15.226562 -14.53125 16.09375 -12.265625 16.09375 -9.453125 C 16.09375 -6.597656 15.226562 -4.304688 13.5 -2.578125 C 11.78125 -0.859375 9.515625 0 6.703125 0 Z M 5.046875 0 "/></g></g></g><g fill="#ffffff" fill-opacity="1"><g transform="translate(158.053151, 153.596451)"><g><path d="M 5.046875 0 C 2.191406 0 -0.09375 -0.859375 -1.8125 -2.578125 C -3.539062 -4.304688 -4.40625 -6.597656 -4.40625 -9.453125 C -4.40625 -12.265625 -3.539062 -14.53125 -1.8125 -16.25 C -0.09375 -17.976562 2.191406 -18.84375 5.046875 -18.84375 L 6.703125 -18.84375 C 9.515625 -18.84375 11.78125 -17.976562 13.5 -16.25 C 15.226562 -14.53125 16.09375 -12.265625 16.09375 -9.453125 C 16.09375 -6.597656 15.226562 -4.304688 13.5 -2.578125 C 11.78125 -0.859375 9.515625 0 6.703125 0 Z M 5.046875 0 "/></g></g></g><g fill="#ffffff" fill-opacity="1"><g transform="translate(169.743488, 153.596451)"><g><path d="M 5.046875 0 C 2.191406 0 -0.09375 -0.859375 -1.8125 -2.578125 C -3.539062 -4.304688 -4.40625 -6.597656 -4.40625 -9.453125 C -4.40625 -12.265625 -3.539062 -14.53125 -1.8125 -16.25 C -0.09375 -17.976562 2.191406 -18.84375 5.046875 -18.84375 L 6.703125 -18.84375 C 9.515625 -18.84375 11.78125 -17.976562 13.5 -16.25 C 15.226562 -14.53125 16.09375 -12.265625 16.09375 -9.453125 C 16.09375 -6.597656 15.226562 -4.304688 13.5 -2.578125 C 11.78125 -0.859375 9.515625 0 6.703125 0 Z M 5.046875 0 "/></g></g></g><g fill="#ffffff" fill-opacity="1"><g transform="translate(181.433824, 153.596451)"><g><path d="M 5.046875 0 C 2.191406 0 -0.09375 -0.859375 -1.8125 -2.578125 C -3.539062 -4.304688 -4.40625 -6.597656 -4.40625 -9.453125 C -4.40625 -12.265625 -3.539062 -14.53125 -1.8125 -16.25 C -0.09375 -17.976562 2.191406 -18.84375 5.046875 -18.84375 L 6.703125 -18.84375 C 9.515625 -18.84375 11.78125 -17.976562 13.5 -16.25 C 15.226562 -14.53125 16.09375 -12.265625 16.09375 -9.453125 C 16.09375 -6.597656 15.226562 -4.304688 13.5 -2.578125 C 11.78125 -0.859375 9.515625 0 6.703125 0 Z M 5.046875 0 "/></g></g></g><g fill="#ffffff" fill-opacity="1"><g transform="translate(193.124161, 153.596451)"><g><path d="M 5.046875 0 C 2.191406 0 -0.09375 -0.859375 -1.8125 -2.578125 C -3.539062 -4.304688 -4.40625 -6.597656 -4.40625 -9.453125 C -4.40625 -12.265625 -3.539062 -14.53125 -1.8125 -16.25 C -0.09375 -17.976562 2.191406 -18.84375 5.046875 -18.84375 L 6.703125 -18.84375 C 9.515625 -18.84375 11.78125 -17.976562 13.5 -16.25 C 15.226562 -14.53125 16.09375 -12.265625 16.09375 -9.453125 C 16.09375 -6.597656 15.226562 -4.304688 13.5 -2.578125 C 11.78125 -0.859375 9.515625 0 6.703125 0 Z M 5.046875 0 "/></g></g></g><g fill="#ffffff" fill-opacity="1"><g transform="translate(204.814498, 153.596451)"><g><path d="M 5.046875 0 C 2.191406 0 -0.09375 -0.859375 -1.8125 -2.578125 C -3.539062 -4.304688 -4.40625 -6.597656 -4.40625 -9.453125 C -4.40625 -12.265625 -3.539062 -14.53125 -1.8125 -16.25 C -0.09375 -17.976562 2.191406 -18.84375 5.046875 -18.84375 L 6.703125 -18.84375 C 9.515625 -18.84375 11.78125 -17.976562 13.5 -16.25 C 15.226562 -14.53125 16.09375 -12.265625 16.09375 -9.453125 C 16.09375 -6.597656 15.226562 -4.304688 13.5 -2.578125 C 11.78125 -0.859375 9.515625 0 6.703125 0 Z M 5.046875 0 "/></g></g></g><g fill="#ffffff" fill-opacity="1"><g transform="translate(216.504835, 153.596451)"><g><path d="M 5.046875 0 C 2.191406 0 -0.09375 -0.859375 -1.8125 -2.578125 C -3.539062 -4.304688 -4.40625 -6.597656 -4.40625 -9.453125 C -4.40625 -12.265625 -3.539062 -14.53125 -1.8125 -16.25 C -0.09375 -17.976562 2.191406 -18.84375 5.046875 -18.84375 L 6.703125 -18.84375 C 9.515625 -18.84375 11.78125 -17.976562 13.5 -16.25 C 15.226562 -14.53125 16.09375 -12.265625 16.09375 -9.453125 C 16.09375 -6.597656 15.226562 -4.304688 13.5 -2.578125 C 11.78125 -0.859375 9.515625 0 6.703125 0 Z M 5.046875 0 "/></g></g></g><g fill="#ffffff" fill-opacity="1"><g transform="translate(228.195172, 153.596451)"><g><path d="M 5.046875 0 C 2.191406 0 -0.09375 -0.859375 -1.8125 -2.578125 C -3.539062 -4.304688 -4.40625 -6.597656 -4.40625 -9.453125 C -4.40625 -12.265625 -3.539062 -14.53125 -1.8125 -16.25 C -0.09375 -17.976562 2.191406 -18.84375 5.046875 -18.84375 L 6.703125 -18.84375 C 9.515625 -18.84375 11.78125 -17.976562 13.5 -16.25 C 15.226562 -14.53125 16.09375 -12.265625 16.09375 -9.453125 C 16.09375 -6.597656 15.226562 -4.304688 13.5 -2.578125 C 11.78125 -0.859375 9.515625 0 6.703125 0 Z M 5.046875 0 "/></g></g></g><g fill="#ffffff" fill-opacity="1"><g transform="translate(239.885508, 153.596451)"><g><path d="M 5.046875 0 C 2.191406 0 -0.09375 -0.859375 -1.8125 -2.578125 C -3.539062 -4.304688 -4.40625 -6.597656 -4.40625 -9.453125 C -4.40625 -12.265625 -3.539062 -14.53125 -1.8125 -16.25 C -0.09375 -17.976562 2.191406 -18.84375 5.046875 -18.84375 L 6.703125 -18.84375 C 9.515625 -18.84375 11.78125 -17.976562 13.5 -16.25 C 15.226562 -14.53125 16.09375 -12.265625 16.09375 -9.453125 C 16.09375 -6.597656 15.226562 -4.304688 13.5 -2.578125 C 11.78125 -0.859375 9.515625 0 6.703125 0 Z M 5.046875 0 "/></g></g></g><g fill="#ffffff" fill-opacity="1"><g transform="translate(251.575845, 153.596451)"><g><path d="M 5.046875 0 C 2.191406 0 -0.09375 -0.859375 -1.8125 -2.578125 C -3.539062 -4.304688 -4.40625 -6.597656 -4.40625 -9.453125 C -4.40625 -12.265625 -3.539062 -14.53125 -1.8125 -16.25 C -0.09375 -17.976562 2.191406 -18.84375 5.046875 -18.84375 L 6.703125 -18.84375 C 9.515625 -18.84375 11.78125 -17.976562 13.5 -16.25 C 15.226562 -14.53125 16.09375 -12.265625 16.09375 -9.453125 C 16.09375 -6.597656 15.226562 -4.304688 13.5 -2.578125 C 11.78125 -0.859375 9.515625 0 6.703125 0 Z M 5.046875 0 "/></g></g></g><g fill="#ffffff" fill-opacity="1"><g transform="translate(263.266182, 153.596451)"><g><path d="M 5.046875 0 C 2.191406 0 -0.09375 -0.859375 -1.8125 -2.578125 C -3.539062 -4.304688 -4.40625 -6.597656 -4.40625 -9.453125 C -4.40625 -12.265625 -3.539062 -14.53125 -1.8125 -16.25 C -0.09375 -17.976562 2.191406 -18.84375 5.046875 -18.84375 L 6.703125 -18.84375 C 9.515625 -18.84375 11.78125 -17.976562 13.5 -16.25 C 15.226562 -14.53125 16.09375 -12.265625 16.09375 -9.453125 C 16.09375 -6.597656 15.226562 -4.304688 13.5 -2.578125 C 11.78125 -0.859375 9.515625 0 6.703125 0 Z M 5.046875 0 "/></g></g></g><g fill="#ffffff" fill-opacity="1"><g transform="translate(274.956519, 153.596451)"><g><path d="M 5.046875 0 C 2.191406 0 -0.09375 -0.859375 -1.8125 -2.578125 C -3.539062 -4.304688 -4.40625 -6.597656 -4.40625 -9.453125 C -4.40625 -12.265625 -3.539062 -14.53125 -1.8125 -16.25 C -0.09375 -17.976562 2.191406 -18.84375 5.046875 -18.84375 L 6.703125 -18.84375 C 9.515625 -18.84375 11.78125 -17.976562 13.5 -16.25 C 15.226562 -14.53125 16.09375 -12.265625 16.09375 -9.453125 C 16.09375 -6.597656 15.226562 -4.304688 13.5 -2.578125 C 11.78125 -0.859375 9.515625 0 6.703125 0 Z M 5.046875 0 "/></g></g></g><g fill="#ffffff" fill-opacity="1"><g transform="translate(286.646856, 153.596451)"><g><path d="M 5.046875 0 C 2.191406 0 -0.09375 -0.859375 -1.8125 -2.578125 C -3.539062 -4.304688 -4.40625 -6.597656 -4.40625 -9.453125 C -4.40625 -12.265625 -3.539062 -14.53125 -1.8125 -16.25 C -0.09375 -17.976562 2.191406 -18.84375 5.046875 -18.84375 L 6.703125 -18.84375 C 9.515625 -18.84375 11.78125 -17.976562 13.5 -16.25 C 15.226562 -14.53125 16.09375 -12.265625 16.09375 -9.453125 C 16.09375 -6.597656 15.226562 -4.304688 13.5 -2.578125 C 11.78125 -0.859375 9.515625 0 6.703125 0 Z M 5.046875 0 "/></g></g></g><g fill="#ffffff" fill-opacity="1"><g transform="translate(298.337193, 153.596451)"><g><path d="M 5.046875 0 C 2.191406 0 -0.09375 -0.859375 -1.8125 -2.578125 C -3.539062 -4.304688 -4.40625 -6.597656 -4.40625 -9.453125 C -4.40625 -12.265625 -3.539062 -14.53125 -1.8125 -16.25 C -0.09375 -17.976562 2.191406 -18.84375 5.046875 -18.84375 L 6.703125 -18.84375 C 9.515625 -18.84375 11.78125 -17.976562 13.5 -16.25 C 15.226562 -14.53125 16.09375 -12.265625 16.09375 -9.453125 C 16.09375 -6.597656 15.226562 -4.304688 13.5 -2.578125 C 11.78125 -0.859375 9.515625 0 6.703125 0 Z M 5.046875 0 "/></g></g></g><g fill="#ffffff" fill-opacity="1"><g transform="translate(310.027529, 153.596451)"><g><path d="M 5.046875 0 C 2.191406 0 -0.09375 -0.859375 -1.8125 -2.578125 C -3.539062 -4.304688 -4.40625 -6.597656 -4.40625 -9.453125 C -4.40625 -12.265625 -3.539062 -14.53125 -1.8125 -16.25 C -0.09375 -17.976562 2.191406 -18.84375 5.046875 -18.84375 L 6.703125 -18.84375 C 9.515625 -18.84375 11.78125 -17.976562 13.5 -16.25 C 15.226562 -14.53125 16.09375 -12.265625 16.09375 -9.453125 C 16.09375 -6.597656 15.226562 -4.304688 13.5 -2.578125 C 11.78125 -0.859375 9.515625 0 6.703125 0 Z M 5.046875 0 "/></g></g></g></g></g></svg>